<svg width="24" height="24" viewBox="0 0 24 24" fill="none" xmlns="http://www.w3.org/2000/svg">
<path d="M11.2759 6.8921C11.2759 4.44514 9.87263 2 8.13793 2C6.40323 2 5 4.44514 5 6.8921C5 8.61133 5.70057 9.216 6.71613 9.81862C6.87022 9.91006 6.96676 10.0749 6.9668 10.2541L6.96963 21.9C6.96964 21.9552 7.01441 22 7.06963 22H9.16756C9.2228 22 9.26758 21.9552 9.26756 21.9L9.265 10.2823C9.26496 10.0985 9.36639 9.93037 9.5263 9.83991C10.5675 9.2509 11.2759 8.62745 11.2759 6.8921Z" stroke="#1F2023" stroke-width="1.5" stroke-miterlimit="10"/>
<path d="M13.6895 2.5127V8.00134C13.6895 8.7754 14.317 9.4029 15.091 9.4029V9.4029C15.1168 9.4029 15.1377 9.42382 15.1377 9.44962L15.1377 21.8999C15.1377 21.9551 15.1825 21.9999 15.2377 21.9999H17.4515C17.5068 21.9999 17.5515 21.9551 17.5515 21.8999V9.44962C17.5515 9.42382 17.5724 9.4029 17.5982 9.4029V9.4029C18.3723 9.4029 18.9998 8.7754 18.9998 8.00134V2.5127" stroke="#1F2023" stroke-width="1.5" stroke-linecap="square"/>
<path d="M16.3447 2.5127V6.61526" stroke="#1F2023" stroke-width="1.5" stroke-linecap="square"/>
</svg>
