<svg width="24" height="24" viewBox="0 0 24 24" fill="none" xmlns="http://www.w3.org/2000/svg">
<path d="M9.13129 4.58843L9.49886 5.24218L9.13129 4.58843ZM9.1769 4.53365L8.46731 4.29077L9.1769 4.53365ZM6.54167 6.02121L6.44047 6.76435L6.54167 6.02121ZM6.60417 6.00929L6.97174 6.66305L6.60417 6.00929ZM3.84441 5.7213L4.51179 6.0635L3.84441 5.7213ZM3.94689 5.66784L3.84568 6.41098L3.94689 5.66784ZM2.08861 9.14553L2.75599 9.48774L2.08861 9.14553ZM3.94674 11.0489L4.46928 10.5109L3.94674 11.0489ZM3.94678 12.7158L3.42395 12.1781L3.94678 12.7158ZM1.98077 14.726L1.31358 15.0686L1.98077 14.726ZM2.00002 14.6087L2.52285 15.1464L2.00002 14.6087ZM3.84097 18.2027L3.73936 17.4596L3.84097 18.2027ZM3.73846 18.1493L4.40565 17.8067L3.73846 18.1493ZM6.3341 17.8823L6.70167 17.2285L6.3341 17.8823ZM6.27155 17.8703L6.16994 17.1273L6.27155 17.8703ZM9.00548 19.4134L9.71506 19.1705L9.00548 19.4134ZM8.95988 19.3586L8.59231 20.0123L8.95988 19.3586ZM9.86773 21.9324L10.5773 21.6896L9.86773 21.9324ZM13.9122 21.9324L13.2026 21.6896L13.9122 21.9324ZM14.7469 19.5724L15.1144 20.2261L14.7469 19.5724ZM14.7013 19.6272L13.9917 19.3843L14.7013 19.6272ZM17.5254 18.0334L17.6266 17.2903L17.5254 18.0334ZM17.4629 18.0453L17.8304 18.6991L17.4629 18.0453ZM20.2519 18.3373L20.9193 18.6795L20.2519 18.3373ZM20.1494 18.3908L20.2506 17.6476L20.1494 18.3908ZM21.9884 14.7957L22.5109 14.2577L21.9884 14.7957ZM22.0077 14.9131L22.6751 15.2553L22.0077 14.9131ZM20.1403 13.0008L20.6628 12.4627L20.1403 13.0008ZM20.1402 11.1101L20.6631 11.6478L20.1402 11.1101ZM22.0164 9.18715L22.6836 8.84458L22.0164 9.18715ZM21.9972 9.30452L22.52 9.84224L21.9972 9.30452ZM20.1562 5.71048L20.2578 6.45356L20.1562 5.71048ZM20.2587 5.76388L19.5916 6.10645L20.2587 5.76388ZM17.5491 6.04653L17.1815 6.70028L17.5491 6.04653ZM17.6116 6.05844L17.51 5.31535L17.6116 6.05844ZM14.9094 4.53326L14.1998 4.77614L14.9094 4.53326ZM14.955 4.58804L14.5875 5.24179L14.955 4.58804ZM10.021 2.06762L10.7306 2.3105L10.021 2.06762ZM14.0655 2.06762L14.775 1.82473L14.0655 2.06762ZM13.9709 1.25H10.1156V2.75H13.9709V1.25ZM15.619 4.29037L14.775 1.82473L13.3559 2.3105L14.1998 4.77614L15.619 4.29037ZM17.9166 5.39277L15.3226 3.93429L14.5875 5.24179L17.1815 6.70028L17.9166 5.39277ZM20.0546 4.96739L17.51 5.31535L17.7132 6.80152L20.2578 6.45356L20.0546 4.96739ZM22.6836 8.84458L20.9259 5.42131L19.5916 6.10645L21.3492 9.52972L22.6836 8.84458ZM20.6631 11.6478L22.52 9.84224L21.4743 8.7668L19.6174 10.5723L20.6631 11.6478ZM20.86 12.929V11.1818H19.36V12.929H20.86ZM22.5109 14.2577L20.6628 12.4627L19.6177 13.5388L21.4658 15.3337L22.5109 14.2577ZM20.9193 18.6795L22.6751 15.2553L21.3403 14.5709L19.5845 17.9951L20.9193 18.6795ZM17.4242 18.7766L20.0482 19.1339L20.2506 17.6476L17.6266 17.2903L17.4242 18.7766ZM15.1144 20.2261L17.8304 18.6991L17.0953 17.3916L14.3793 18.9186L15.1144 20.2261ZM14.6218 22.1753L15.4109 19.87L13.9917 19.3843L13.2026 21.6896L14.6218 22.1753ZM9.96234 22.7501H13.8176V21.2501H9.96234V22.7501ZM8.2959 19.6562L9.15815 22.1753L10.5773 21.6896L9.71506 19.1705L8.2959 19.6562ZM5.96653 18.536L8.59231 20.0123L9.32745 18.7048L6.70167 17.2285L5.96653 18.536ZM3.94258 18.9458L6.37316 18.6134L6.16994 17.1273L3.73936 17.4596L3.94258 18.9458ZM1.31358 15.0686L3.07127 18.4919L4.40565 17.8067L2.64796 14.3835L1.31358 15.0686ZM3.42395 12.1781L1.47718 14.0709L2.52285 15.1464L4.46962 13.2535L3.42395 12.1781ZM3.22707 11.1206V12.6441H4.72707V11.1206H3.22707ZM1.58538 9.8009L3.4242 11.5869L4.46928 10.5109L2.63046 8.72489L1.58538 9.8009ZM3.17703 5.3791L1.42123 8.80333L2.75599 9.48774L4.51179 6.0635L3.17703 5.3791ZM6.64287 5.27807L4.04809 4.9247L3.84568 6.41098L6.44047 6.76435L6.64287 5.27807ZM8.76372 3.93468L6.2366 5.35554L6.97174 6.66305L9.49886 5.24218L8.76372 3.93468ZM9.31141 1.82473L8.46731 4.29077L9.88648 4.77653L10.7306 2.3105L9.31141 1.82473ZM9.49886 5.24218C9.68088 5.13985 9.81886 4.97409 9.88648 4.77653L8.46731 4.29077C8.51902 4.13969 8.62454 4.01294 8.76372 3.93468L9.49886 5.24218ZM6.44047 6.76435C6.62386 6.78933 6.8104 6.75376 6.97174 6.66305L6.2366 5.35554C6.35998 5.28617 6.50263 5.25897 6.64287 5.27807L6.44047 6.76435ZM4.51179 6.0635C4.38595 6.30891 4.11895 6.4482 3.84568 6.41098L4.04809 4.9247C3.69074 4.87604 3.34158 5.05818 3.17703 5.3791L4.51179 6.0635ZM2.63046 8.72489C2.83541 8.92395 2.88635 9.2335 2.75599 9.48774L1.42123 8.80333C1.25076 9.13579 1.31737 9.54059 1.58538 9.8009L2.63046 8.72489ZM4.72707 11.1206C4.72707 10.8909 4.63408 10.6709 4.46928 10.5109L3.4242 11.5869C3.29818 11.4645 3.22707 11.2963 3.22707 11.1206H4.72707ZM4.46962 13.2535C4.63421 13.0935 4.72707 12.8737 4.72707 12.6441H3.22707C3.22707 12.4685 3.29808 12.3005 3.42395 12.1781L4.46962 13.2535ZM2.64796 14.3835C2.77846 14.6376 2.7277 14.9472 2.52285 15.1464L1.47718 14.0709C1.20931 14.3314 1.14292 14.7362 1.31358 15.0686L2.64796 14.3835ZM3.73936 17.4596C4.0126 17.4223 4.27968 17.5614 4.40565 17.8067L3.07127 18.4919C3.236 18.8127 3.58525 18.9946 3.94258 18.9458L3.73936 17.4596ZM6.70167 17.2285C6.5402 17.1377 6.35348 17.1022 6.16994 17.1273L6.37316 18.6134C6.2328 18.6326 6.09002 18.6054 5.96653 18.536L6.70167 17.2285ZM9.71506 19.1705C9.64744 18.9729 9.50946 18.8072 9.32745 18.7048L8.59231 20.0123C8.45312 19.9341 8.34761 19.8073 8.2959 19.6562L9.71506 19.1705ZM9.96234 21.2501C10.2402 21.2501 10.4873 21.4267 10.5773 21.6896L9.15815 22.1753C9.27582 22.5191 9.59899 22.7501 9.96234 22.7501V21.2501ZM13.2026 21.6896C13.2926 21.4267 13.5397 21.2501 13.8176 21.2501V22.7501C14.1809 22.7501 14.5041 22.5191 14.6218 22.1753L13.2026 21.6896ZM14.3793 18.9186C14.1973 19.021 14.0593 19.1867 13.9917 19.3843L15.4109 19.87C15.3591 20.0211 15.2536 20.1479 15.1144 20.2261L14.3793 18.9186ZM17.6266 17.2903C17.4432 17.2653 17.2566 17.3009 17.0953 17.3916L17.8304 18.6991C17.7071 18.7685 17.5644 18.7957 17.4242 18.7766L17.6266 17.2903ZM19.5845 17.9951C19.7103 17.7497 19.9773 17.6104 20.2506 17.6476L20.0482 19.1339C20.4055 19.1826 20.7547 19.0004 20.9193 18.6795L19.5845 17.9951ZM21.4658 15.3337C21.2609 15.1347 21.2099 14.8251 21.3403 14.5709L22.6751 15.2553C22.8455 14.9228 22.7789 14.518 22.5109 14.2577L21.4658 15.3337ZM19.36 12.929C19.36 13.1587 19.4529 13.3787 19.6177 13.5388L20.6628 12.4627C20.7888 12.5851 20.86 12.7533 20.86 12.929H19.36ZM19.6174 10.5723C19.4528 10.7324 19.36 10.9522 19.36 11.1818H20.86C20.86 11.3573 20.7889 11.5254 20.6631 11.6478L19.6174 10.5723ZM21.3492 9.52972C21.2187 9.27555 21.2695 8.96597 21.4743 8.7668L22.52 9.84224C22.7879 9.58178 22.8543 9.17695 22.6836 8.84458L21.3492 9.52972ZM20.2578 6.45356C19.9846 6.49093 19.7175 6.35179 19.5916 6.10645L20.9259 5.42131C20.7612 5.10048 20.4119 4.91853 20.0546 4.96739L20.2578 6.45356ZM17.1815 6.70028C17.343 6.79107 17.5297 6.82662 17.7132 6.80152L17.51 5.31535C17.6504 5.29616 17.7932 5.32335 17.9166 5.39277L17.1815 6.70028ZM14.1998 4.77614C14.2675 4.9737 14.4054 5.13945 14.5875 5.24179L15.3226 3.93429C15.4618 4.01254 15.5673 4.1393 15.619 4.29037L14.1998 4.77614ZM10.1156 1.25C9.75225 1.25 9.42907 1.48096 9.31141 1.82473L10.7306 2.3105C10.6406 2.57338 10.3935 2.75 10.1156 2.75V1.25ZM13.9709 2.75C13.693 2.75 13.4459 2.57338 13.3559 2.3105L14.775 1.82473C14.6574 1.48096 14.3342 1.25 13.9709 1.25V2.75Z" fill="#1F2023"/>
<circle cx="12" cy="12" r="3" stroke="#1F2023" stroke-width="1.5"/>
</svg>
