<svg width="24" height="25" viewBox="0 0 24 25" fill="none" xmlns="http://www.w3.org/2000/svg">
<path d="M3 4.43203C3 4.3768 3.04477 4.33203 3.1 4.33203H20.9C20.9552 4.33203 21 4.3768 21 4.43203V7.23203C21 7.28726 20.9552 7.33203 20.9 7.33203H3.1C3.04477 7.33203 3 7.28726 3 7.23203V4.43203Z" stroke="#1F2023" stroke-width="1.5"/>
<path d="M4 7.33203V16.232C4 16.2873 4.04477 16.332 4.1 16.332H19.9C19.9552 16.332 20 16.2873 20 16.232V7.33203" stroke="#1F2023" stroke-width="1.5"/>
<path d="M8.5 14.332L11.125 11.1502L12.4375 12.5138L15.5 9.33203" stroke="#1F2023" stroke-width="1.5"/>
<path d="M12 4.83203V1.33203" stroke="#1F2023" stroke-width="1.5"/>
<circle cx="12" cy="20.582" r="1.75" stroke="#1F2023" stroke-width="1.5"/>
<path d="M12 16.332V19.332" stroke="#1F2023" stroke-width="1.5"/>
</svg>
