<svg width="24" height="24" viewBox="0 0 24 24" fill="none" xmlns="http://www.w3.org/2000/svg">
<path d="M22.0005 4.99951V7.14922M22.0005 7.14922V19.8995C22.0005 19.9547 21.9557 19.9995 21.9005 19.9995H2.71219C2.67391 19.9995 2.63899 19.9777 2.62226 19.9432L2.1898 19.0538C1.42086 17.4724 1.22491 15.673 1.6354 13.9632V13.9632C1.8367 13.1247 2.49676 12.4799 3.3174 12.2151C6.10114 11.3169 10.3173 9.3028 12.0397 6.0763C12.0625 6.03376 12.1103 6.01251 12.1566 6.02611C13.4808 6.41516 17.1671 7.14922 22.0005 7.14922Z" stroke="#1F2023" stroke-width="1.5" stroke-linecap="square"/>
<path d="M2.50049 16.9995H21.5005" stroke="#1F2023" stroke-width="1.5" stroke-linecap="square"/>
<path d="M6.62695 11.1138C7.15195 12.1554 8.11498 14.9349 8.53497 16.4349" stroke="#1F2023" stroke-width="1.5" stroke-linecap="square"/>
</svg>
